<?xml version="1.0" standalone="no"?>
<!DOCTYPE svg PUBLIC "-//W3C//DTD SVG 20010904//EN"
 "http://www.w3.org/TR/2001/REC-SVG-20010904/DTD/svg10.dtd">
<svg version="1.0" xmlns="http://www.w3.org/2000/svg"
 width="1024.000000pt" height="1024.000000pt" viewBox="0 0 1024.000000 1024.000000"
 preserveAspectRatio="xMidYMid meet">

<g transform="translate(0.000000,1024.000000) scale(0.100000,-0.100000)"
fill="#d8871f" stroke="none">
<path d="M2127 7383 c-3 -5 101 -8 232 -9 205 -1 219 0 106 6 -179 10 -333 12
-338 3z"/>
<path d="M7770 7383 c-559 -29 -1087 -171 -1604 -430 -140 -70 -368 -201 -391
-225 -14 -15 30 8 95 50 276 175 653 342 990 439 395 112 622 146 1080 162
l215 8 -165 0 c-91 -1 -190 -2 -220 -4z"/>
<path d="M1836 7368 c-153 -13 -238 -30 -244 -48 -4 -12 -2 -13 9 -4 20 16
121 31 289 44 226 16 230 17 140 17 -47 0 -134 -4 -194 -9z"/>
<path d="M8193 7373 c20 -2 54 -2 75 0 20 2 3 4 -38 4 -41 0 -58 -2 -37 -4z"/>
<path d="M2670 7358 c222 -30 404 -61 521 -88 72 -17 133 -29 136 -27 15 16
-500 112 -647 121 l-85 5 75 -11z"/>
<path d="M8405 7360 c158 -21 215 -33 215 -46 0 -7 -9 -37 -20 -65 -12 -28
-19 -53 -17 -55 2 -2 16 26 30 63 15 37 25 69 22 71 -9 10 -136 31 -215 36
l-85 5 70 -9z"/>
<path d="M1611 7274 c-1 -17 41 -114 49 -114 5 0 -2 21 -14 48 -13 26 -26 54
-29 62 -3 8 -6 10 -6 4z"/>
<path d="M3425 7210 c50 -16 94 -28 100 -26 5 1 -22 12 -60 24 -112 33 -138
35 -40 2z"/>
<path d="M2110 7208 c-96 -4 -200 -12 -230 -17 -54 -10 -54 -10 15 -4 39 3
223 9 410 13 232 4 294 7 195 10 -80 1 -161 3 -180 4 -19 1 -114 -2 -210 -6z"/>
<path d="M7505 7201 c-22 -3 149 -6 380 -6 231 0 400 3 375 7 -55 8 -700 7
-755 -1z"/>
<path d="M2720 7189 c151 -16 258 -32 410 -60 160 -29 216 -33 88 -6 -173 37
-466 78 -538 76 -19 -1 -1 -5 40 -10z"/>
<path d="M7330 7179 c-123 -19 -291 -52 -287 -55 2 -2 82 9 178 25 96 16 190
31 209 34 34 4 34 4 -5 4 -22 0 -65 -3 -95 -8z"/>
<path d="M8328 7183 c12 -2 30 -2 40 0 9 3 -1 5 -23 4 -22 0 -30 -2 -17 -4z"/>
<path d="M1715 7170 c-34 -6 -35 -7 -10 -8 17 0 50 3 75 7 40 8 41 8 10 8 -19
0 -53 -3 -75 -7z"/>
<path d="M3555 7170 c50 -22 239 -90 242 -86 5 5 -60 31 -166 67 -83 28 -116
36 -76 19z"/>
<path d="M8408 7173 c12 -2 30 -2 40 0 9 3 -1 5 -23 4 -22 0 -30 -2 -17 -4z"/>
<path d="M8483 7163 c9 -2 25 -2 35 0 9 3 1 5 -18 5 -19 0 -27 -2 -17 -5z"/>
<path d="M6975 7115 c-5 -2 -74 -20 -153 -41 -78 -20 -141 -38 -139 -40 2 -2
82 16 178 41 96 24 163 44 149 44 -14 0 -29 -2 -35 -4z"/>
<path d="M3460 7053 c194 -53 214 -58 180 -43 -34 16 -311 90 -330 89 -8 0 59
-21 150 -46z"/>
<path d="M3820 7070 c8 -5 20 -10 25 -10 6 0 3 5 -5 10 -8 5 -19 10 -25 10 -5
0 -3 -5 5 -10z"/>
<path d="M3880 7045 c14 -8 30 -14 35 -14 6 0 -1 6 -15 14 -14 8 -29 14 -35
14 -5 0 1 -6 15 -14z"/>
<path d="M3932 7024 c3 -3 70 -37 148 -75 138 -67 356 -192 472 -271 66 -44
90 -52 32 -10 -139 101 -706 410 -652 356z"/>
<path d="M1541 7009 c-167 -5 -311 -10 -320 -13 -15 -5 63 -4 689 9 380 8 998
-19 1020 -44 3 -3 19 -7 35 -8 30 -2 64 -5 160 -17 44 -5 46 -4 15 4 -19 5
-59 12 -89 15 -30 3 -57 7 -60 9 -10 7 -279 36 -401 45 -145 10 -652 10 -1049
0z"/>
<path d="M6517 6985 c-54 -18 -101 -36 -105 -40 -8 -9 3 -5 133 39 55 19 93
34 85 34 -8 0 -59 -15 -113 -33z"/>
<path d="M7830 7017 c-3 -2 -81 -7 -174 -11 -93 -3 -172 -9 -175 -12 -3 -4 53
-3 124 0 72 4 261 7 422 8 161 1 297 5 304 9 7 4 -102 8 -242 8 -140 1 -257 0
-259 -2z"/>
<path d="M8473 7003 c48 -2 125 -2 170 0 45 1 6 3 -88 3 -93 0 -130 -2 -82 -3z"/>
<path d="M3685 6990 c27 -12 43 -12 25 0 -8 5 -22 9 -30 9 -10 0 -8 -3 5 -9z"/>
<path d="M8813 6993 c26 -2 67 -2 90 0 23 2 2 3 -48 3 -49 0 -68 -1 -42 -3z"/>
<path d="M8954 6988 c-3 -4 39 -7 93 -7 106 2 100 6 -15 11 -41 2 -76 0 -78
-4z"/>
<path d="M1118 6983 c18 -2 45 -2 60 0 15 2 0 4 -33 4 -33 0 -45 -2 -27 -4z"/>
<path d="M7290 6973 c-227 -30 -530 -101 -775 -180 -357 -116 -779 -315 -1155
-545 -129 -80 -251 -167 -193 -139 26 13 33 14 33 4 0 -10 -66 -53 -81 -53 -6
0 -50 25 -97 57 -92 60 -244 152 -327 198 -27 15 -90 50 -140 77 -85 48 -267
137 -405 200 -277 125 -666 247 -985 307 -218 41 -585 78 -585 59 0 -5 24 -8
53 -8 73 0 294 -26 472 -56 296 -49 691 -165 978 -286 263 -112 661 -326 929
-500 l107 -70 118 73 c414 255 537 322 878 474 392 175 859 301 1300 351 188
21 490 21 678 0 186 -21 215 -18 47 5 -348 47 -692 30 -1140 -57 -76 -15 -311
-76 -420 -110 -251 -77 -603 -227 -883 -376 -71 -38 -133 -65 -139 -62 -7 4
-8 3 -4 -4 3 -6 -3 -16 -14 -22 -22 -12 -44 -5 -34 11 9 16 84 50 94 44 6 -3
10 -2 10 4 0 6 11 13 25 17 14 3 23 9 21 13 -3 4 61 40 142 80 81 40 163 81
182 91 107 54 310 131 323 123 6 -4 7 -1 2 7 -6 10 -4 12 8 7 9 -3 17 -2 19 3
8 23 436 154 477 146 14 -3 19 -2 11 1 -31 13 314 84 553 113 53 7 97 14 97
16 0 7 -73 2 -180 -13z m-1797 -688 c-18 -12 -245 -154 -273 -170 -12 -7 -13
-6 -3 7 7 8 10 17 7 20 -3 3 3 5 13 5 10 -1 17 4 15 11 -1 7 6 15 15 19 10 3
32 16 48 28 46 33 59 40 51 27 -4 -7 -2 -12 3 -12 6 0 11 6 11 14 0 17 100 75
118 68 9 -3 8 -8 -5 -17z"/>
<path d="M9159 6971 c11 -7 10 -28 -9 -130 -12 -67 -20 -125 -16 -128 3 -4 6
0 6 8 0 8 11 69 24 137 l23 122 -21 0 c-16 0 -18 -2 -7 -9z"/>
<path d="M2235 6955 c-147 -16 -73 -16 155 -1 177 13 180 13 70 13 -63 0 -164
-5 -225 -12z"/>
<path d="M1044 6945 c3 -11 23 -108 46 -215 48 -229 250 -1158 285 -1310 14
-58 54 -235 89 -395 36 -159 95 -420 131 -580 36 -159 75 -328 85 -375 11 -47
40 -168 65 -270 25 -102 61 -251 80 -333 53 -226 95 -389 106 -408 16 -30 72
-37 339 -43 322 -7 581 -34 883 -92 71 -14 134 -23 139 -22 10 4 -192 44 -337
68 -183 30 -455 52 -708 59 -257 6 -278 8 -296 26 -13 13 -35 84 -65 210 -26
105 -76 312 -112 460 -80 328 -69 278 -274 1190 -33 149 -74 329 -90 400 -41
180 -233 1053 -265 1205 -66 317 -86 406 -95 425 l-10 20 4 -20z"/>
<path d="M3825 6943 c22 -9 101 -40 175 -70 166 -66 174 -69 128 -44 -44 25
-314 131 -331 130 -7 0 6 -7 28 -16z"/>
<path d="M2058 6933 c12 -2 32 -2 45 0 12 2 2 4 -23 4 -25 0 -35 -2 -22 -4z"/>
<path d="M1978 6923 c12 -2 30 -2 40 0 9 3 -1 5 -23 4 -22 0 -30 -2 -17 -4z"/>
<path d="M3273 6907 c55 -13 95 -26 90 -31 -4 -5 -3 -6 4 -2 7 4 76 -9 153
-28 78 -20 144 -36 148 -36 4 0 0 -5 -8 -11 -13 -9 -12 -10 3 -5 9 3 17 1 17
-4 0 -5 6 -7 13 -4 15 5 239 -67 295 -95 48 -24 92 -40 92 -32 0 10 -196 86
-362 140 -146 47 -420 117 -494 125 -27 3 -5 -5 49 -17z"/>
<path d="M6340 6920 c-8 -5 -10 -10 -5 -10 6 0 17 5 25 10 8 5 11 10 5 10 -5
0 -17 -5 -25 -10z"/>
<path d="M1903 6913 c9 -2 25 -2 35 0 9 3 1 5 -18 5 -19 0 -27 -2 -17 -5z"/>
<path d="M8281 6916 c2 -2 31 -6 64 -9 39 -4 50 -3 30 2 -31 9 -102 14 -94 7z"/>
<path d="M1833 6903 c9 -2 25 -2 35 0 9 3 1 5 -18 5 -19 0 -27 -2 -17 -5z"/>
<path d="M6220 6874 c-103 -42 -450 -211 -450 -218 0 -4 62 25 139 63 76 38
198 95 272 126 73 31 136 58 138 61 10 10 -19 0 -99 -32z"/>
<path d="M1763 6893 c9 -2 25 -2 35 0 9 3 1 5 -18 5 -19 0 -27 -2 -17 -5z"/>
<path d="M8438 6893 c12 -2 30 -2 40 0 9 3 -1 5 -23 4 -22 0 -30 -2 -17 -4z"/>
<path d="M1456 6849 c-99 -11 -182 -22 -184 -24 -3 -2 42 -219 98 -482 57
-263 117 -542 134 -621 28 -132 32 -143 51 -137 11 3 107 24 213 46 225 45
282 69 361 148 111 111 165 253 165 431 0 193 -57 345 -174 461 -45 46 -85 71
-200 128 -168 83 -160 82 -464 50z"/>
<path d="M8360 6822 c-262 -119 -358 -220 -412 -435 -28 -111 -21 -268 16
-375 37 -107 106 -205 185 -263 73 -54 142 -79 286 -104 50 -8 135 -26 190
-39 55 -13 102 -23 104 -20 2 2 19 86 37 186 19 101 69 379 113 618 44 239 78
436 77 437 -4 5 -410 43 -450 43 -27 -1 -77 -17 -146 -48z"/>
<path d="M2330 6854 c-19 -2 -72 -7 -117 -10 -46 -3 -83 -10 -83 -15 0 -5 10
-9 22 -9 12 0 202 -60 422 -134 221 -74 429 -140 464 -146 136 -27 258 7 354
100 59 56 61 75 11 90 -87 24 -389 81 -533 99 -147 19 -465 34 -540 25z"/>
<path d="M7535 6850 c-246 -22 -715 -107 -743 -135 -10 -10 78 -92 128 -119
72 -39 161 -59 234 -51 91 10 153 27 471 130 160 51 331 105 380 121 50 15 94
30 98 34 21 18 -413 34 -568 20z"/>
<path d="M4254 6764 c48 -25 91 -43 93 -40 6 5 -162 87 -175 85 -4 0 33 -20
82 -45z"/>
<path d="M4418 6685 c34 -19 66 -35 70 -35 11 1 -111 70 -123 70 -5 0 18 -16
53 -35z"/>
<path d="M5697 6679 c-32 -22 -57 -42 -57 -45 0 -3 27 14 60 37 54 38 67 49
57 49 -2 0 -29 -18 -60 -41z"/>
<path d="M9121 6695 c-1 -10 -21 -123 -46 -255 -73 -391 -105 -576 -103 -589
2 -9 22 90 46 219 23 129 58 320 77 424 20 104 33 194 31 200 -3 7 -5 7 -5 1z"/>
<path d="M3535 6645 c-32 -55 -89 -104 -172 -148 l-66 -35 189 -45 c104 -25
240 -55 301 -67 106 -20 116 -21 167 -6 72 21 118 72 114 124 -3 35 -6 37 -83
70 -104 44 -239 93 -342 125 l-82 25 -26 -43z"/>
<path d="M6520 6636 c-85 -29 -195 -69 -245 -90 -49 -21 -102 -42 -117 -48
-38 -14 -36 -40 7 -87 71 -79 130 -87 327 -45 170 35 420 95 437 104 9 5 -4
15 -42 33 -87 40 -143 82 -178 137 -18 27 -33 50 -33 49 -1 0 -71 -24 -156
-53z"/>
<path d="M2267 6659 c34 -38 99 -167 123 -244 31 -101 37 -250 16 -351 -23
-102 -92 -247 -151 -312 -26 -29 -44 -52 -41 -52 3 0 146 18 318 39 172 22
358 45 413 51 149 16 188 27 234 67 101 86 126 244 59 382 -33 69 -122 153
-188 178 -51 19 -724 242 -780 258 l-25 7 22 -23z"/>
<path d="M7835 6633 c-55 -19 -224 -73 -375 -119 -151 -47 -290 -92 -307 -101
-52 -24 -135 -122 -158 -184 -38 -106 -22 -228 43 -315 57 -75 100 -92 299
-115 138 -15 468 -59 648 -85 l40 -6 -31 33 c-85 91 -148 214 -173 337 -15 75
-13 225 4 307 15 70 67 192 105 245 35 49 38 49 -95 3z"/>
<path d="M4114 6641 c3 -5 32 -19 63 -32 71 -28 397 -191 418 -209 9 -7 18
-10 21 -8 3 3 -10 15 -28 26 -68 41 -458 232 -475 232 -2 0 -2 -4 1 -9z"/>
<path d="M4500 6646 c0 -3 14 -12 30 -21 17 -9 30 -13 30 -11 0 3 -13 12 -30
21 -16 9 -30 13 -30 11z"/>
<path d="M5627 6581 c-65 -38 -121 -72 -125 -76 -4 -5 20 7 53 25 33 18 93 51
133 72 67 37 83 49 65 47 -5 0 -61 -31 -126 -68z"/>
<path d="M4640 6626 c0 -2 14 -14 30 -26 17 -12 30 -19 30 -16 0 2 -13 14 -30
26 -16 12 -30 19 -30 16z"/>
<path d="M5582 6599 c-56 -41 -54 -48 3 -9 39 27 53 40 42 40 -2 0 -22 -14
-45 -31z"/>
<path d="M4604 6586 c11 -9 24 -16 30 -16 12 0 7 5 -24 19 -24 11 -24 11 -6
-3z"/>
<path d="M4710 6576 c0 -2 23 -21 51 -41 28 -20 48 -32 45 -26 -8 12 -96 74
-96 67z"/>
<path d="M4661 6557 c2 -2 18 -11 34 -21 l30 -17 -24 20 c-13 12 -28 21 -34
21 -6 0 -8 -1 -6 -3z"/>
<path d="M5490 6528 c-14 -11 -36 -29 -50 -41 -14 -12 -25 -19 -25 -17 0 2 -9
-3 -20 -13 -11 -9 -42 -32 -70 -52 -71 -50 -45 -44 34 8 36 24 74 46 84 50 9
4 16 12 15 18 -2 6 3 14 11 17 9 3 11 0 6 -8 -5 -9 -4 -11 4 -6 6 4 9 11 6 16
-3 5 5 16 17 24 12 9 20 18 17 20 -2 2 -15 -5 -29 -16z"/>
<path d="M4834 6483 c21 -25 16 -29 -15 -13 -10 6 -19 9 -19 6 0 -2 35 -25 78
-50 42 -25 93 -55 112 -67 19 -12 31 -18 25 -12 -17 17 -140 108 -142 106 -7
-7 -23 -2 -19 6 3 4 -4 17 -17 27 l-22 19 19 -22z"/>
<path d="M4169 6413 c-6 -20 -31 -56 -56 -79 l-44 -43 38 -10 c21 -6 171 -35
333 -66 162 -31 298 -59 302 -61 5 -3 8 -3 8 0 0 16 -531 296 -561 296 -4 0
-13 -16 -20 -37z"/>
<path d="M5785 6322 c-207 -106 -305 -159 -305 -166 0 -2 28 3 63 9 53 11 381
73 560 108 31 6 57 14 57 19 0 4 -5 8 -12 8 -23 0 -75 49 -99 94 -13 25 -26
46 -29 46 -3 -1 -108 -54 -235 -118z"/>
<path d="M4674 6359 c26 -17 50 -28 52 -26 5 5 -80 57 -93 57 -4 0 14 -14 41
-31z"/>
<path d="M3296 6339 c52 -58 94 -180 94 -274 0 -54 -30 -153 -60 -195 l-22
-31 24 5 c12 3 153 22 313 41 199 25 298 41 318 53 58 34 85 138 53 200 -31
59 -62 72 -306 121 -122 25 -341 76 -415 98 -19 5 -19 5 1 -18z"/>
<path d="M6820 6334 c-52 -13 -174 -40 -270 -60 -278 -58 -328 -85 -338 -183
-8 -86 36 -149 116 -170 36 -9 567 -71 611 -71 l22 0 -25 33 c-85 111 -94 267
-23 410 39 78 44 75 -93 41z"/>
<path d="M4765 6306 c17 -14 33 -25 37 -26 8 0 153 -86 191 -112 15 -11 27
-16 27 -11 -1 8 -207 137 -260 163 -22 10 -22 9 5 -14z"/>
<path d="M4116 6161 c29 -70 28 -135 -2 -192 -8 -16 -11 -29 -6 -29 7 0 179
26 537 80 197 30 202 32 125 42 -100 13 -474 76 -573 96 -78 16 -87 17 -81 3z"/>
<path d="M5755 6112 c-181 -30 -337 -57 -345 -60 -8 -3 21 -11 65 -18 150 -23
646 -94 659 -94 10 0 9 10 -6 40 -20 40 -22 132 -4 173 11 23 18 24 -369 -41z"/>
<path d="M5030 6139 c0 -7 3 -10 6 -6 6 5 28 -10 66 -45 10 -10 23 -18 28 -18
21 0 8 16 -38 45 -61 38 -62 39 -62 24z"/>
<path d="M4905 5971 c-11 -4 -68 -16 -127 -26 -59 -10 -111 -21 -116 -24 -10
-6 8 -100 20 -104 7 -2 258 152 258 159 0 6 -12 4 -35 -5z"/>
<path d="M5325 5958 c11 -6 71 -42 133 -80 62 -39 115 -69 116 -67 2 2 7 27
11 55 l6 50 -129 27 c-142 29 -168 32 -137 15z"/>
<path d="M4555 5905 c-5 -2 -107 -18 -225 -35 -118 -16 -230 -32 -248 -35
l-32 -6 28 -24 c60 -51 94 -178 73 -275 -6 -29 -10 -54 -8 -56 2 -2 46 25 98
60 51 34 156 102 232 151 98 62 135 91 128 98 -14 14 -14 82 -1 108 9 16 7 19
-12 18 -13 0 -27 -2 -33 -4z"/>
<path d="M5645 5894 c9 -19 11 -74 4 -106 -4 -16 72 -67 370 -250 111 -68 113
-69 107 -41 -4 15 -9 58 -13 95 -7 81 8 143 48 198 l29 40 -23 4 c-12 3 -132
19 -267 37 -135 17 -249 34 -254 37 -6 3 -6 -2 -1 -14z"/>
<path d="M5260 5894 c0 -2 17 -30 38 -62 20 -32 55 -90 77 -130 22 -39 43 -72
47 -72 4 0 14 13 23 29 8 16 29 39 46 51 l31 22 -40 23 c-21 12 -80 49 -131
82 -50 34 -91 59 -91 57z"/>
<path d="M4842 5803 l-123 -85 29 -18 c16 -10 37 -34 46 -55 l18 -37 35 58
c63 105 125 216 121 219 -2 2 -58 -35 -126 -82z"/>
<path d="M5170 5653 l0 -221 38 20 c30 15 53 19 118 16 l81 -3 -30 50 c-17 28
-70 119 -118 204 l-89 154 0 -220z"/>
<path d="M5047 5833 c-8 -16 -56 -100 -106 -188 -51 -88 -97 -167 -101 -175
-7 -13 2 -15 65 -12 57 3 82 0 119 -16 l46 -21 0 220 c0 120 -2 219 -4 219 -3
0 -11 -12 -19 -27z"/>
<path d="M8941 5708 c-12 -68 -29 -157 -37 -198 -12 -66 -47 -263 -129 -735
-13 -77 -31 -180 -40 -230 -9 -49 -27 -155 -41 -235 -13 -80 -27 -152 -29
-160 -5 -17 -66 -374 -130 -761 -47 -280 -55 -316 -83 -338 -13 -10 -13 -12
-2 -9 32 9 51 85 115 463 36 215 81 478 100 585 56 309 70 393 135 765 33 193
86 489 116 658 31 170 54 311 51 313 -2 2 -14 -51 -26 -118z"/>
<path d="M3755 5793 c-129 -15 -591 -77 -594 -80 -2 -1 9 -13 25 -25 61 -47
117 -116 154 -193 75 -156 78 -257 15 -453 -8 -24 -5 -23 411 224 240 142 272
176 288 306 6 47 4 66 -14 105 -27 61 -46 82 -95 104 -38 18 -108 22 -190 12z"/>
<path d="M6296 5777 c-89 -56 -112 -167 -58 -282 16 -33 46 -76 68 -95 34 -31
311 -198 518 -312 63 -35 68 -36 61 -15 -38 117 -46 166 -41 238 9 137 69 262
172 359 30 29 54 53 52 55 -7 5 -542 65 -633 71 -94 5 -102 4 -139 -19z"/>
<path d="M7191 5658 c-167 -64 -269 -306 -216 -511 38 -147 90 -198 336 -334
230 -126 394 -218 438 -246 33 -20 34 -20 27 -1 -86 205 -80 459 14 669 57
127 153 250 243 310 57 38 61 35 -68 54 -265 40 -603 81 -657 80 -39 0 -84 -8
-117 -21z"/>
<path d="M2740 5655 c-47 -7 -195 -28 -330 -46 -135 -18 -247 -34 -249 -36 -2
-1 9 -12 25 -24 106 -79 231 -247 282 -379 74 -190 79 -416 13 -590 -10 -27
-18 -50 -16 -50 2 0 75 41 162 91 87 50 235 134 328 186 194 108 250 156 291
247 36 80 45 219 20 315 -29 115 -112 224 -206 273 -37 19 -62 23 -140 25 -52
1 -133 -4 -180 -12z"/>
<path d="M5542 5638 c-71 -45 -70 -109 1 -215 61 -92 209 -283 218 -283 3 0 9
17 12 39 12 91 77 175 168 215 l61 28 -63 41 c-181 115 -324 197 -343 197 -11
0 -36 -10 -54 -22z"/>
<path d="M4432 5533 l-181 -117 52 -29 c29 -15 65 -40 80 -55 36 -34 76 -112
85 -165 l7 -41 94 122 c154 199 171 227 171 284 0 43 -4 54 -34 84 -54 54 -70
49 -274 -83z"/>
<path d="M8270 5517 c-79 -18 -144 -59 -230 -146 -131 -132 -189 -274 -197
-482 -6 -147 11 -259 56 -354 50 -105 84 -135 259 -224 86 -44 192 -103 235
-132 43 -28 79 -49 81 -48 1 2 10 51 20 109 10 58 63 357 117 665 95 533 112
633 102 592 -3 -12 -10 -16 -22 -12 -109 34 -336 52 -421 32z"/>
<path d="M1731 5509 c-35 -4 -87 -13 -117 -19 -48 -10 -53 -14 -49 -33 92
-419 288 -1291 290 -1295 1 -1 38 22 83 52 45 30 122 76 172 101 210 109 283
240 284 510 1 106 -3 144 -22 208 -70 245 -251 442 -436 476 -67 12 -111 12
-205 0z"/>
<path d="M5260 5369 c-14 -5 -37 -22 -52 -36 l-28 -27 0 -233 c0 -128 2 -233
5 -233 3 0 23 11 44 24 21 14 72 35 112 48 99 31 276 31 389 0 41 -11 76 -19
77 -18 1 1 -73 100 -165 221 -124 163 -177 224 -204 238 -44 22 -142 31 -178
16z"/>
<path d="M4811 5347 c-52 -21 -63 -33 -223 -237 -92 -118 -168 -218 -168 -221
0 -4 18 0 40 7 56 19 203 44 262 44 106 0 264 -48 321 -98 16 -14 17 -3 17
214 l0 230 -32 31 c-18 17 -43 36 -55 42 -34 17 -103 12 -162 -12z"/>
<path d="M6055 5331 c-93 -26 -155 -78 -185 -157 -40 -107 -25 -156 92 -311
108 -143 310 -392 320 -392 3 -1 9 12 13 28 3 17 28 60 54 98 72 102 179 183
321 244 77 33 116 45 205 65 28 6 29 7 9 14 -12 5 -158 91 -325 191 -167 100
-322 190 -344 200 -50 22 -120 30 -160 20z"/>
<path d="M4075 5317 c-39 -13 -407 -233 -610 -365 l-100 -65 60 -12 c33 -7 94
-26 135 -43 181 -72 298 -168 359 -294 l38 -78 161 201 c253 317 280 364 262
460 -12 62 -30 96 -72 135 -67 64 -155 86 -233 61z"/>
<path d="M4590 4829 c-81 -14 -178 -45 -235 -77 -40 -22 -77 -62 -192 -207
-78 -99 -140 -181 -139 -182 2 -2 27 1 56 7 29 5 124 10 210 10 176 0 327 -21
470 -65 97 -30 280 -114 280 -128 0 -6 -33 -7 -82 -3 -144 12 -368 -22 -573
-85 -416 -129 -824 -364 -1170 -674 -128 -115 -204 -176 -272 -219 -45 -28
-58 -22 -21 10 45 41 183 222 206 273 36 79 28 152 -31 274 -79 161 -215 289
-408 381 -185 89 -375 113 -524 66 -80 -25 -275 -120 -282 -136 -3 -9 90 -422
178 -785 l20 -86 202 -7 c518 -17 1038 -109 1424 -252 333 -123 621 -285 781
-438 45 -43 85 -77 87 -74 3 3 10 34 16 69 13 83 50 158 91 186 41 27 104 42
183 43 l60 1 -40 13 c-61 20 -149 61 -192 90 -55 38 -84 34 -128 -16 -20 -24
-45 -59 -55 -78 l-18 -35 -8 40 c-6 33 -2 49 26 102 64 125 121 143 211 66 52
-45 195 -120 207 -109 3 3 0 24 -7 46 -12 39 -31 59 -131 133 -72 53 -93 91
-87 158 5 58 38 132 81 184 30 35 31 26 11 -65 -8 -36 -14 -80 -15 -98 0 -45
32 -103 74 -135 19 -15 43 -41 53 -57 20 -35 33 -39 33 -10 0 47 59 119 113
139 71 27 158 -3 207 -71 17 -24 34 -55 37 -70 6 -29 23 -39 23 -14 0 8 29 43
64 78 78 77 86 108 58 241 l-18 87 27 -26 c43 -41 83 -139 83 -206 1 -66 -14
-86 -127 -170 -69 -51 -83 -68 -98 -120 -8 -29 -7 -30 19 -24 50 12 133 58
194 107 67 54 96 60 141 31 59 -39 118 -162 102 -212 -6 -19 -10 -16 -37 24
-77 118 -109 128 -200 67 -32 -20 -83 -46 -115 -56 -101 -31 -101 -31 -17 -38
140 -12 181 -31 218 -105 27 -53 51 -161 43 -192 -4 -17 0 -16 36 10 23 16 65
52 92 80 55 57 194 152 336 231 484 268 1177 426 1956 446 l243 6 5 31 c3 17
21 135 41 261 19 127 46 297 59 379 14 81 25 152 25 157 0 26 -249 150 -370
185 -85 24 -103 26 -219 21 -136 -5 -202 -22 -316 -79 -239 -121 -425 -361
-425 -549 0 -91 35 -147 212 -340 48 -53 88 -100 88 -103 0 -20 -205 132 -335
249 -371 331 -783 563 -1225 690 -200 58 -326 78 -497 79 -84 1 -149 5 -146
10 12 19 198 98 299 126 172 48 302 63 516 58 l187 -4 -34 41 c-19 22 -86 103
-149 180 -126 156 -156 178 -286 215 -203 57 -417 26 -530 -76 l-41 -37 2
-711 c3 -768 2 -780 -48 -792 -18 -5 -31 -1 -46 15 l-22 22 -3 731 -2 732 -33
35 c-83 87 -263 128 -437 100z"/>
<path d="M6845 4781 c-160 -42 -289 -114 -375 -208 -84 -92 -98 -191 -38 -269
56 -72 485 -549 545 -607 l30 -28 6 50 c7 60 42 150 88 228 73 122 273 292
424 359 86 37 203 74 238 74 19 0 27 4 22 9 -21 21 -613 366 -665 387 -69 29
-174 31 -275 5z"/>
<path d="M3175 4781 c-60 -16 -105 -41 -674 -384 l-33 -20 90 -27 c210 -62
397 -181 535 -339 81 -94 159 -251 169 -343 3 -25 15 -14 134 120 174 194 358
414 402 480 29 43 37 66 40 113 9 128 -68 227 -240 308 -149 71 -343 113 -423
92z"/>
<path d="M4150 4269 c-89 -10 -175 -31 -222 -55 -25 -13 -276 -294 -262 -294
3 0 44 21 92 46 109 57 262 123 395 170 121 42 360 104 402 104 16 0 36 4 43
9 17 10 -188 31 -289 30 -41 -1 -112 -6 -159 -10z"/>
<path d="M5805 4275 c-11 -2 -51 -7 -90 -11 l-70 -6 142 -29 c79 -16 209 -51
290 -78 136 -44 440 -174 487 -207 46 -32 36 -10 -25 54 -35 37 -91 98 -124
135 -66 77 -107 102 -204 123 -61 14 -361 28 -406 19z"/>
<path d="M8451 4064 c0 -11 3 -14 6 -6 3 7 2 16 -1 19 -3 4 -6 -2 -5 -13z"/>
<path d="M2338 3173 c7 -3 16 -2 19 1 4 3 -2 6 -13 5 -11 0 -14 -3 -6 -6z"/>
<path d="M8399 3035 c-3 -2 -124 -5 -269 -6 -436 -4 -830 -48 -1265 -143 -107
-24 -236 -59 -231 -63 2 -2 48 7 102 21 439 110 858 163 1369 173 160 3 299 9
310 14 14 5 16 8 4 8 -9 1 -18 -1 -20 -4z"/>
<path d="M3515 2845 c241 -61 476 -140 670 -224 74 -32 133 -55 130 -51 -6 9
-209 97 -326 141 -184 69 -615 190 -669 188 -8 0 80 -24 195 -54z"/>
<path d="M6565 2809 c-221 -72 -328 -109 -420 -145 -122 -47 -361 -160 -370
-175 -3 -5 47 18 112 50 138 68 346 152 523 209 204 66 216 70 200 70 -8 0
-28 -4 -45 -9z"/>
<path d="M4835 2650 c-125 -19 -168 -71 -171 -207 l-2 -81 49 -4 49 -3 0 35
c0 76 63 166 149 212 21 12 31 24 29 35 -4 21 -31 24 -103 13z"/>
<path d="M5300 2646 c0 -17 3 -20 70 -69 25 -18 54 -47 66 -64 23 -35 50 -144
41 -168 -6 -13 -4 -14 16 0 13 8 37 16 53 17 16 1 32 7 36 13 22 31 -8 172
-45 214 -32 34 -92 58 -169 66 -58 6 -68 4 -68 -9z"/>
<path d="M4331 2556 c11 -10 153 -77 144 -68 -13 13 -126 72 -139 72 -5 0 -7
-2 -5 -4z"/>
<path d="M4918 2520 c-56 -49 -72 -85 -66 -153 7 -87 33 -127 108 -164 92 -46
174 -53 271 -23 84 25 128 63 147 127 25 84 8 151 -56 216 -39 40 -52 46 -52
23 0 -22 -79 -85 -121 -98 -32 -9 -44 -8 -84 12 -28 14 -56 38 -72 61 -14 22
-27 39 -28 39 -1 0 -22 -18 -47 -40z"/>
<path d="M4600 2402 c0 -5 14 -21 32 -38 l31 -29 -28 38 c-28 38 -35 44 -35
29z"/>
<path d="M5607 2372 c-19 -20 -23 -37 -7 -27 10 6 33 45 27 45 -2 0 -11 -8
-20 -18z"/>
<path d="M4780 2314 c0 -6 7 -19 16 -30 14 -18 14 -18 3 6 -14 31 -19 36 -19
24z"/>
<path d="M5411 2240 c-53 -80 -65 -91 -74 -67 -2 6 -8 9 -12 5 -4 -3 -2 -15 3
-25 10 -16 14 -14 49 23 32 35 101 144 91 144 -2 0 -27 -36 -57 -80z"/>
<path d="M4832 2219 c29 -53 68 -85 80 -67 10 17 10 46 -1 52 -5 4 -7 -2 -4
-13 3 -10 0 -22 -5 -25 -13 -8 -33 12 -62 59 -30 49 -36 44 -8 -6z"/>
<path d="M5325 2200 c-3 -5 -1 -10 4 -10 6 0 11 5 11 10 0 6 -2 10 -4 10 -3 0
-8 -4 -11 -10z"/>
</g>
</svg>
